<?xml version="1.0" encoding="UTF-8"?>
<svg id="Layer_1" data-name="Layer 1" xmlns="http://www.w3.org/2000/svg" viewBox="0 0 5065.05 3491.76">
  <defs>
    <style>
      .cls-1, .cls-2 {
        fill: #fff;
        stroke: #000;
        stroke-miterlimit: 10;
        stroke-width: 48px;
      }

      .cls-2 {
        fill-rule: evenodd;
      }
    </style>
  </defs>
  <g id="Shape_1" data-name="Shape 1">
    <g id="Shape_1-2" data-name="Shape 1-2">
      <path class="cls-2" d="m4661.31,722.68c-319.2-40.01-307.36,521.41-513,519.3-197.11-2.03-76.24-165.45-472.5-693C3279.55,21.43,3032.94,18.6,2541.81,25.18c-491.13,6.58-790.47,60.66-1101.6,470.7-311.13,410.04-328.28,587.27-349.2,647.1-20.92,59.83-81.02,144.11-227.7,89.1-146.68-55.01-125.06-478.44-410.4-516.6C163.38,676.76,7.38,962.09,25.41,1259.98c18.03,297.89,244.63,587.22,267.3,634.5s171.06,131.05,197.1,190.8,63.6,238.46,131.4,419.4c67.8,180.94,444.61,508.92,721.8,675,277.19,166.08,806.87,291.79,1160.1,288,353.23-3.79,735.39,11,1324.8-346.5,271.02-164.38,537.21-444.87,603-577.8,65.79-132.93,149.22-467.19,297-621,282.66-294.19,562.56-1120.83-66.6-1199.7h0Z"/>
      <path class="cls-1" d="m4661.31,722.68c-319.2-40.01-307.36,521.41-513,519.3-197.11-2.03-76.24-165.45-472.5-693C3279.55,21.43,3032.94,18.6,2541.81,25.18c-491.13,6.58-790.47,60.66-1101.6,470.7-311.13,410.04-328.28,587.27-349.2,647.1-20.92,59.83-81.02,144.11-227.7,89.1-146.68-55.01-125.06-478.44-410.4-516.6C163.38,676.76,7.38,962.09,25.41,1259.98c18.03,297.89,244.63,587.22,267.3,634.5s171.06,131.05,197.1,190.8,63.6,238.46,131.4,419.4c67.8,180.94,444.61,508.92,721.8,675,277.19,166.08,806.87,291.79,1160.1,288,353.23-3.79,735.39,11,1324.8-346.5,271.02-164.38,537.21-444.87,603-577.8,65.79-132.93,149.22-467.19,297-621,282.66-294.19,562.56-1120.83-66.6-1199.7h0Z"/>
    </g>
  </g>
</svg>